#!OML:ASF E:/inclinewalkrobotboard/Project1/Captureday1/Session1/subject1.ASF
:FULLY-SPECIFIED
:DEGREES
38
root 0 0 0 -3.5610956358614336 -3.098659614119682 -5.126382407566696
lowerback 9.50652713260574 0.039014513564954445 3.0864201102149975
upperback -0.8212685171739847 0.610522410595625 2.6927327585245875
thorax -6.111145919483998 0.2514864712633368 1.0027771540341326
lowerneck -18.689144363913996 -2.8446296747652995 -1.437785709819185
upperneck 18.160749045331 -3.4555592333375342 -0.34046985621112746
head 8.900340208308814 -1.746907544163756 -0.335552792828478
rclavicle -1.3083289939382677E-15 -6.470212143777096E-16
rhumerus -32.8457720330656 -23.67466614376655 -80.590546086454
rradius 20.145066402935946
rwrist 11.38140290363328
rhand -18.660653473152408 25.581342693887997
rfingers 7.125020000000014
rthumb 7.651509340630498 -4.3190998008773605
lclavicle -3.740299466531241E-15 -5.787027184995854E-16
lhumerus -28.990820239789088 -1.6901416725365326 85.43199944430644
lradius 26.804940431591284
lwrist 6.3255881120116975
lhand -28.086710959353127 26.08331245947224
lfingers 7.125020000000044
lthumb -1.4609544457690973 56.10558727480941
rfemur -5.808323431904366 7.677608386218168 34.57042578186602
rtibia 35.41117868017444
rfoot -14.872002970141814 -5.9650401068703225
rtoes 8.844884690995388
lfemur -22.07837482768922 3.666895917466592 -13.676160180924132
ltibia 57.14653003577742
lfoot 3.102148056006719 -9.684811154102011
ltoes -5.4708568359123575
39
root 0 0 0 -2.9673658777033793 -4.827827370276939 -7.354029589160383
lowerback 8.533058769153198 1.347264609268841 5.566802098543102
upperback -0.9309563764098484 2.651217044253769 2.7552846243726017
thorax -5.606129142549327 1.207685260073775 -0.5952380290955478
lowerneck -18.600134082802857 -3.324103320387679 -1.743670471608346
upperneck 21.140267909943155 -4.210967548071792 0.2442020725506111
head 9.847484388640787 -2.050878690166291 -0.21673307734413128
rclavicle -2.8782890344081487E-15 1.6711192511579354E-15
rhumerus -32.71309944572173 -21.317739933152012 -81.40279294969093
rradius 21.411265063809715
rwrist 9.937136371546433
rhand -18.857123813384323 26.188952511286445
rfingers 7.125020000000014
rthumb 7.46343033409139 -3.6933978513595775
lclavicle -5.704409289323928E-15 1.6357069103667458E-15
lhumerus -29.726348339870967 -1.365663550638362 85.74458115786815
lradius 26.50750489476754
lwrist 6.260940791887776
lhand -27.938673425504383 26.106527968164507
lfingers 7.125020000000044
lthumb -1.3231044995002588 56.13293359938402
rfemur -2.5124439816178086 8.231275554666372 34.64924460849106
rtibia 29.63270896817565
rfoot -17.470491541726886 -6.163025704713865
rtoes 7.1668091491090795
lfemur -28.75917402110599 2.9971427533865826 -10.824699278851059
ltibia 54.41918934338867
lfoot 0.47179244254535035 -5.50672414289348
ltoes -7.754382682661941
40
root 0 0 0 -2.291758318925938 -5.524054609358671 -7.563402250688156
lowerback 11.547115061195631 2.159582324161169 6.49486842774885
upperback 1.017526213990386 3.7885825317997694 2.2968365894869844
thorax -5.1879590587760225 1.7435869738190588 -1.7810027670626454
lowerneck -17.47891060575347 -3.569225014543746 -2.09820484878167
upperneck 21.626446609564166 -4.598483411250453 0.7709992869961445
head 9.840748058968419 -2.2088631760100013 -0.011965815527657298
rclavicle -4.901612822103008E-15 2.3704368050748516E-15
rhumerus -30.286947181171644 -16.523578167289408 -81.68052691877661
rradius 26.175149876209552
rwrist 7.708061298507562
rhand -19.294493322534095 27.3837443258424
rfingers 7.125020000000021
rthumb 7.037180411425013 -2.49767700643406
lclavicle -8.280514851291183E-15 2.0189395176583016E-15
lhumerus -30.883275790473927 -0.6240877126790916 85.43045493693009
lradius 26.420924891772096
lwrist 5.92561772831889
lhand -27.592348056867472 25.470835893038096
lfingers 7.12502000000005
lthumb -0.9995494058584402 55.4993075669248
rfemur -0.871932886667155 8.523347759678739 34.7120956643879
rtibia 27.273819795178394
rfoot -18.436473202198595 -6.4023368196883315
rtoes 5.600920970731646
lfemur -30.400863952141275 1.1230094938538508 -8.947224886144912
ltibia 44.96163163767206
lfoot -4.009893635669368 0.05321485307460794
ltoes -15.288419123317148
41
root 0 0 0 -2.188662797771855 -5.731132871448957 -7.347867560329696
lowerback 11.713075502159418 2.384677593038727 6.567119258975788
upperback 1.4117139860290537 4.036708001486329 1.9188339339928304
thorax -4.875978673669333 1.8609925125399616 -2.247747445450303
lowerneck -16.824460349207165 -3.4929461210951396 -2.044257759703531
upperneck 20.01181620983015 -4.5432605872685015 1.0646639042790877
head 9.139377081846702 -2.174327844870012 0.10928282201246525
rclavicle -5.6681600171359105E-15 2.0656082181638458E-15
rhumerus -26.61334251557181 -12.558162747593226 -80.98484467866587
rradius 31.27347042762582
rwrist 6.839832191727006
rhand -19.550593968442037 28.530493338090245
rfingers 7.1250200000000214
rthumb 6.780890942039298 -1.3592245498496354
lclavicle -7.432441108441965E-15 2.3106058491307832E-15
lhumerus -31.18503592491334 -0.4455274673683868 85.24477925270199
lradius 26.527131295247592
lwrist 6.055097660872244
lhand -27.583417248200618 25.430113964715147
lfingers 7.125020000000048
lthumb -0.9961741445377523 55.469725484534486
rfemur -0.1088441991466107 8.493453933764323 34.62124302685281
rtibia 26.32908233803425
rfoot -19.55675746109454 -6.728405770297415
rtoes 2.8904213815718744
lfemur -29.473076456040033 -0.9537763482720727 -7.694671230271052
ltibia 34.49446857293867
lfoot -8.303680641522917 4.916411868087168
ltoes -22.94077966744903
